<?xml version="1.0" standalone="no"?>
<!DOCTYPE svg PUBLIC "-//W3C//DTD SVG 20010904//EN"
 "http://www.w3.org/TR/2001/REC-SVG-20010904/DTD/svg10.dtd">
<svg version="1.0" xmlns="http://www.w3.org/2000/svg"
 width="2133.000000pt" height="2133.000000pt" viewBox="0 0 2133.000000 2133.000000"
 preserveAspectRatio="xMidYMid meet">
<metadata>
Created by potrace 1.11, written by Peter Selinger 2001-2013
</metadata>
<g transform="translate(0.000000,2133.000000) scale(0.100000,-0.100000)"
fill="#000000" stroke="none">
<path d="M0 10665 l0 -10665 10665 0 10665 0 0 10665 0 10665 -10665 0 -10665
0 0 -10665z m11080 9375 c2192 -102 4190 -914 5840 -2374 193 -170 620 -601
795 -801 1190 -1363 1949 -2981 2225 -4745 70 -448 100 -811 107 -1310 7 -528
-11 -881 -72 -1360 -183 -1429 -699 -2802 -1506 -4005 -1086 -1620 -2633
-2855 -4454 -3553 -909 -350 -1866 -550 -2880 -603 -277 -15 -942 -6 -1195 15
-260 22 -514 52 -730 86 -1764 276 -3382 1035 -4745 2225 -200 175 -631 602
-801 795 -1027 1160 -1737 2499 -2103 3965 -458 1834 -351 3800 301 5550 953
2557 2957 4570 5504 5528 1174 442 2462 645 3714 587z"/>
<path d="M10385 19403 c-1846 -62 -3614 -699 -5066 -1824 -476 -369 -974 -848
-1360 -1309 -850 -1016 -1459 -2213 -1778 -3495 -318 -1282 -342 -2630 -70
-3920 472 -2230 1799 -4188 3700 -5461 1693 -1134 3708 -1634 5754 -1428 617
62 1271 203 1876 405 404 135 738 275 1149 481 1685 845 3057 2220 3899 3908
524 1051 805 2081 903 3310 17 209 17 976 0 1190 -84 1083 -333 2068 -758
3006 -900 1988 -2534 3587 -4539 4442 -1164 496 -2453 738 -3710 695z m-4244
-2503 c228 -16 563 -39 744 -52 l330 -23 3455 0 3455 0 325 23 c179 12 519 36
755 53 492 35 637 35 701 2 164 -86 257 -397 439 -1461 83 -490 164 -834 283
-1210 27 -84 28 -93 13 -101 -72 -38 -221 -93 -281 -102 -118 -20 -269 20
-332 88 -15 16 -51 80 -79 143 -152 341 -333 687 -463 885 -289 439 -658 698
-1166 819 -319 76 -519 86 -1751 86 l-1009 0 0 -5050 c0 -5590 -6 -5127 64
-5275 86 -183 226 -286 515 -379 210 -68 502 -127 821 -165 245 -30 237 -28
280 -67 61 -55 75 -110 74 -284 -1 -80 -8 -176 -15 -215 l-15 -70 -89 1 c-50
1 -229 9 -400 18 -1617 85 -2658 84 -4339 -5 -214 -11 -394 -18 -401 -16 -18
8 -40 177 -40 312 0 104 4 127 24 173 26 59 73 105 123 121 18 6 112 22 208
36 351 52 691 127 899 200 291 102 420 217 497 445 18 53 19 211 22 5138 l2
5083 -1127 -4 c-1203 -5 -1221 -5 -1509 -57 -534 -95 -956 -353 -1254 -765
-117 -163 -286 -463 -476 -849 -66 -135 -128 -246 -148 -267 -93 -100 -314
-113 -491 -28 -102 49 -98 39 -64 165 114 419 187 743 269 1189 181 985 268
1302 387 1417 64 62 111 78 239 78 60 0 297 -13 525 -30z"/>
</g>
</svg>
