<?xml version="1.0" standalone="no"?>
<!DOCTYPE svg PUBLIC "-//W3C//DTD SVG 20010904//EN"
 "http://www.w3.org/TR/2001/REC-SVG-20010904/DTD/svg10.dtd">
<svg version="1.0" xmlns="http://www.w3.org/2000/svg"
 width="2133.000000pt" height="2133.000000pt" viewBox="0 0 2133.000000 2133.000000"
 preserveAspectRatio="xMidYMid meet">
<metadata>
Created by potrace 1.11, written by Peter Selinger 2001-2013
</metadata>
<g transform="translate(0.000000,2133.000000) scale(0.100000,-0.100000)"
fill="#000000" stroke="none">
<path d="M700 21323 c-321 -54 -582 -287 -672 -600 l-23 -78 0 -9985 0 -9985
23 -75 c85 -269 276 -470 540 -564 l87 -31 9985 -3 c9926 -2 9985 -2 10065 18
101 25 241 95 325 163 130 106 240 279 280 442 20 80 20 139 18 10065 l-3
9985 -31 87 c-94 261 -287 448 -559 539 l-70 24 -9970 1 c-5484 1 -9981 -1
-9995 -3z m8632 -1016 c-21 -12 -15 -17 100 -75 68 -34 143 -68 167 -77 55
-19 161 -19 206 -1 19 8 35 13 35 10 0 -3 -14 -23 -31 -44 -21 -26 -33 -54
-36 -84 -5 -42 -3 -48 27 -76 37 -34 44 -36 93 -15 47 19 83 19 91 -1 3 -9 6
-33 6 -55 0 -44 17 -84 49 -113 20 -18 22 -18 66 -2 49 19 76 48 104 112 31
68 54 78 171 70 99 -6 100 -6 100 17 0 12 -12 40 -26 61 -23 33 -24 38 -8 32
10 -5 112 -12 227 -17 181 -8 264 -18 367 -45 l25 -6 -22 16 c-31 23 -29 60 3
85 34 26 44 26 37 0 -9 -35 41 -74 153 -119 57 -23 108 -48 115 -56 18 -22 27
-17 40 21 l13 35 14 -25 c18 -35 8 -60 -32 -79 -43 -20 -49 -20 -71 4 -25 27
-57 25 -88 -6 -81 -81 -51 -261 54 -331 48 -32 94 -27 153 14 61 43 91 110 90
203 l-1 75 48 -3 c76 -6 113 13 202 101 91 89 150 122 200 111 62 -13 108 -45
168 -119 34 -41 65 -75 70 -75 4 0 55 -45 112 -99 101 -96 159 -137 176 -127
5 3 14 19 20 35 17 39 -3 76 -63 122 -57 43 -72 69 -57 98 7 11 15 21 20 21 4
0 22 -22 39 -49 35 -58 98 -106 156 -122 62 -17 165 -5 326 38 126 33 159 38
255 38 98 0 116 -3 165 -26 30 -14 66 -35 79 -46 l25 -20 -44 -97 c-37 -81
-42 -99 -30 -106 24 -15 160 -49 224 -56 l60 -7 -25 30 c-13 17 -39 49 -56 71
-27 32 -30 41 -18 46 22 8 101 -9 160 -34 92 -39 127 -94 91 -145 -13 -19 -11
-20 73 -21 145 -1 182 -15 270 -101 42 -41 65 -69 52 -63 -20 10 -25 10 -33
-3 -4 -9 -24 -21 -43 -27 -19 -6 -35 -15 -35 -19 0 -14 95 -98 131 -116 20
-11 68 -20 121 -24 47 -3 90 -9 93 -13 4 -3 2 -15 -4 -26 -17 -32 -13 -92 9
-137 l20 -41 117 -1 c108 0 131 -4 268 -42 83 -23 169 -45 193 -48 49 -7 57
-15 42 -43 -9 -17 -8 -21 7 -26 164 -51 204 -83 388 -314 72 -91 164 -195 202
-232 74 -69 188 -134 254 -144 35 -6 36 -6 31 24 -3 24 2 37 23 57 22 23 31
26 63 20 20 -3 66 -23 102 -43 163 -90 186 -102 207 -102 l22 0 -21 -61 c-16
-49 -18 -66 -9 -86 l11 -25 36 31 c41 36 71 39 133 11 24 -11 54 -20 66 -20
39 0 41 -34 6 -101 -40 -77 -40 -107 2 -146 17 -17 42 -34 53 -37 29 -9 73 9
110 45 l31 30 7 -61 c5 -43 20 -86 51 -146 23 -46 39 -84 34 -84 -8 0 -12 4
-49 50 l-20 25 -20 -24 c-12 -14 -20 -38 -20 -60 0 -20 -7 -49 -15 -65 -8 -15
-15 -32 -15 -37 0 -16 55 -9 85 11 36 24 68 26 85 5 7 -9 11 -17 9 -19 -2 -3
-39 -13 -82 -24 -43 -11 -81 -23 -84 -26 -10 -10 29 -46 49 -46 26 0 22 -14
-7 -30 -26 -14 -75 -69 -110 -123 -23 -37 -10 -47 60 -47 99 0 153 52 224 216
24 54 54 118 68 142 l25 43 30 -46 c58 -88 142 -140 336 -206 63 -22 137 -51
165 -66 57 -29 62 -17 -37 -93 -25 -19 -46 -38 -46 -42 0 -15 134 -48 196 -48
64 0 74 6 52 28 -9 9 1 12 48 11 l59 -1 -37 -12 c-49 -15 -53 -21 -24 -40 14
-9 43 -43 66 -75 l40 -60 -46 21 c-67 29 -141 15 -214 -42 l-25 -19 21 -15
c12 -8 54 -56 94 -105 40 -50 97 -107 127 -128 47 -32 62 -37 115 -39 l61 -1
23 -79 c13 -43 48 -148 79 -233 67 -186 87 -262 84 -312 -3 -32 3 -44 39 -83
23 -25 68 -85 99 -134 114 -177 165 -219 253 -209 69 8 75 -6 76 -178 1 -77 6
-152 12 -167 15 -38 53 -59 106 -61 51 -2 54 -8 32 -62 -17 -41 -27 -42 -90
-14 -26 11 -61 19 -79 17 -29 -3 -32 -6 -35 -41 -4 -52 24 -94 98 -146 69 -48
94 -81 86 -109 -4 -11 -25 -38 -47 -60 l-41 -40 42 -22 c30 -15 45 -18 54 -10
11 8 14 1 18 -35 4 -30 25 -80 61 -145 63 -111 90 -189 85 -247 -3 -37 -2 -38
27 -36 20 2 39 13 55 33 27 33 41 36 89 19 l31 -11 -25 -20 c-27 -21 -32 -57
-16 -101 9 -24 10 -24 73 -13 35 7 76 9 92 6 28 -5 26 -7 -71 -85 -56 -44
-149 -109 -207 -144 -58 -35 -106 -67 -106 -70 0 -13 98 -70 138 -81 33 -8 61
-8 118 1 70 12 76 12 102 -8 15 -11 39 -37 54 -59 27 -40 43 -78 28 -69 -14 9
-50 -46 -50 -75 0 -18 24 -64 65 -125 71 -106 85 -143 85 -222 0 -56 -1 -58
-28 -44 -16 8 -118 -2 -129 -13 -3 -3 12 -25 32 -50 l37 -46 -31 -35 c-34 -39
-41 -84 -15 -106 33 -27 46 -68 34 -105 -6 -19 -14 -34 -17 -34 -3 0 -16 9
-30 20 -37 29 -106 26 -171 -6 -29 -14 -52 -29 -52 -33 0 -4 50 -43 111 -87
61 -43 106 -80 101 -82 -5 -1 -60 6 -122 18 -62 11 -115 18 -117 16 -12 -12
46 -122 117 -222 96 -135 119 -183 120 -241 0 -49 -32 -93 -89 -123 l-36 -18
-25 49 -25 49 -50 -24 c-57 -26 -105 -76 -105 -110 0 -33 39 -86 80 -107 20
-11 55 -19 82 -19 27 0 48 -2 48 -5 0 -17 -26 -55 -38 -55 -49 0 -126 66 -177
155 -32 53 -117 255 -108 255 3 0 27 -18 53 -40 77 -65 124 -83 159 -61 22 14
6 44 -103 189 -56 75 -112 151 -124 168 l-22 32 58 -24 c31 -12 88 -30 126
-40 77 -19 86 -15 86 42 0 37 -18 55 -90 87 -30 13 -64 34 -74 46 -20 21 -20
22 15 51 38 33 93 55 110 44 14 -8 14 -10 -36 90 -38 76 -40 84 -40 170 1 50
6 103 13 118 l11 27 51 -34 c59 -40 104 -51 143 -36 42 16 42 35 -1 98 -45 66
-118 138 -242 240 -96 79 -172 157 -217 223 -17 25 -47 63 -68 85 -21 22 -51
69 -68 104 -26 56 -30 74 -29 138 3 88 -21 232 -50 311 -14 39 -36 72 -69 105
-72 70 -96 63 -125 -32 -17 -60 -33 -70 -71 -46 l-26 17 29 13 c43 18 52 34
56 101 l3 61 -42 12 c-67 17 -101 55 -114 126 -16 89 -34 124 -72 140 -17 8
-26 14 -20 15 20 0 41 52 54 127 10 60 15 70 43 88 17 11 41 40 52 64 26 55
50 65 122 51 31 -5 58 -10 61 -10 3 0 -15 13 -40 29 -62 40 -101 85 -145 166
-75 141 -121 169 -274 170 l-105 0 -5 -35 c-5 -30 -10 -19 -34 80 -16 63 -40
142 -53 175 -14 34 -24 80 -24 107 0 48 28 165 41 173 7 5 21 -5 134 -93 30
-24 60 -41 66 -37 5 3 10 20 10 36 0 71 -52 117 -185 159 -107 35 -185 77
-185 102 0 16 75 8 105 -12 38 -25 70 -25 106 1 28 19 28 22 14 48 -20 39 -66
76 -144 116 -36 18 -74 40 -85 47 -17 14 -17 15 13 27 27 12 31 18 31 53 0 30
-7 46 -29 69 -16 16 -36 29 -45 29 -8 0 -52 -12 -96 -26 -45 -14 -88 -23 -96
-20 -16 6 -18 49 -4 77 14 25 4 24 -47 -6 -24 -13 -43 -20 -43 -15 0 5 14 47
30 93 39 105 65 132 128 131 l46 -1 -27 23 c-40 35 -126 49 -196 32 l-56 -13
-5 -75 c-3 -41 -11 -84 -17 -95 -32 -52 -22 -54 -192 30 -89 43 -161 83 -161
88 0 5 26 7 59 5 l59 -4 -15 50 c-56 187 -167 280 -474 396 -226 86 -320 140
-414 238 -47 49 -103 163 -118 240 -6 34 -15 62 -19 62 -5 0 -8 -6 -8 -13 0
-8 -10 -23 -22 -35 -18 -16 -38 -21 -91 -23 l-67 -2 -160 156 c-88 87 -175
181 -195 209 l-35 52 39 16 c22 8 42 18 46 21 3 4 -76 42 -177 84 -101 42
-228 97 -283 120 -55 24 -123 50 -152 58 -66 20 -143 64 -143 83 0 8 19 35 41
59 l42 45 -27 0 c-61 0 -101 36 -176 160 -53 88 -90 130 -116 130 -8 0 -34
-18 -57 -39 l-42 -39 20 -22 c18 -20 14 -19 -40 8 -77 38 -226 86 -335 107
-203 38 -414 63 -465 55 -27 -5 -85 -9 -127 -9 l-78 -1 0 40 c0 48 20 60 105
60 64 0 85 21 85 86 0 40 -2 43 -41 58 -82 33 -172 47 -367 56 -202 10 -269
18 -358 46 l-52 16 30 27 31 28 -34 20 c-46 29 -85 38 -94 23 -4 -7 -7 -31 -7
-54 1 -97 -22 -130 -83 -119 -24 5 -25 8 -19 37 14 55 6 88 -27 123 l-33 33
-48 -67 c-42 -60 -48 -64 -48 -40 0 15 8 49 19 76 l18 49 -46 -25 c-40 -20
-64 -24 -171 -28 -146 -5 -216 -23 -259 -66 -36 -36 -37 -30 -12 76 34 142 36
170 13 193 -47 47 -146 40 -244 -17 l-66 -39 -39 40 c-40 41 -109 78 -180 97
-24 7 -43 16 -43 21 0 14 -92 30 -112 19 -9 -5 -20 -26 -24 -47 -14 -86 -25
-111 -64 -146 l-40 -36 82 -47 82 -48 -54 -7 c-30 -3 -100 -6 -155 -7 l-100
-1 63 36 c34 19 62 39 62 44 0 16 -83 32 -130 27 -25 -3 -94 -19 -154 -36 -60
-17 -124 -31 -142 -31 -18 0 -35 -3 -37 -7 -3 -5 4 -33 13 -62 21 -63 19 -66
-55 -101 l-40 -19 -9 35 c-11 46 -49 81 -116 107 -51 20 -55 25 -58 57 -2 19
2 52 8 73 6 22 9 41 7 44 -3 2 -38 10 -77 16 -136 21 -254 -8 -500 -123 -152
-71 -236 -103 -302 -115 l-38 -7 0 40 c0 39 -2 41 -36 48 -47 9 -119 -2 -163
-24 -37 -18 -69 -63 -81 -115 -7 -27 -8 -23 -9 26 -1 34 -5 57 -12 57 -27 0
-68 -44 -104 -111 -40 -73 -94 -137 -135 -159 -20 -11 -21 -10 -14 24 9 51 -2
83 -36 101 -16 8 -33 15 -37 15 -5 0 -8 -28 -8 -63 0 -46 -5 -70 -20 -92 l-20
-30 -6 92 c-9 137 -34 166 -164 184 -112 15 -145 40 -160 123 l-6 38 -81 -137
c-112 -191 -133 -258 -107 -335 11 -30 10 -34 -17 -56 -49 -40 -213 -120 -337
-163 -279 -99 -489 -193 -606 -274 l-43 -30 36 65 c65 116 44 145 -77 108
-170 -52 -283 -129 -504 -344 -119 -116 -151 -152 -159 -183 l-10 -38 -22 42
c-38 72 -30 89 65 137 68 34 120 87 128 130 7 37 -1 76 -15 76 -5 0 -60 -31
-122 -68 -80 -48 -121 -80 -140 -108 -14 -21 -68 -84 -118 -139 -115 -124
-363 -413 -448 -520 l-64 -81 -55 28 c-76 38 -136 38 -189 -1 -40 -28 -159
-190 -165 -225 -6 -28 -75 -59 -142 -64 l-58 -4 19 -22 c28 -31 42 -61 42 -92
0 -24 5 -19 39 37 73 121 160 156 355 144 127 -7 833 -56 1196 -82 228 -17
492 -18 3790 -18 l3545 0 395 28 c217 15 483 34 590 42 416 31 574 38 634 25
68 -14 128 -57 172 -122 100 -149 200 -557 339 -1390 72 -428 139 -720 250
-1083 30 -99 51 -182 47 -186 -14 -13 -202 -89 -244 -99 -127 -29 -277 3 -353
74 -36 33 -57 71 -114 198 -136 303 -323 660 -440 838 -142 218 -338 421 -525
545 -258 172 -541 271 -936 328 -139 20 -192 21 -1313 24 l-1167 4 3 -5073 c2
-4822 3 -5076 20 -5138 50 -182 159 -318 322 -402 239 -123 650 -219 1184
-278 61 -7 107 -18 132 -32 83 -46 118 -182 99 -373 -10 -98 -27 -206 -33
-211 -1 -1 -103 4 -227 12 -216 12 -635 33 -1130 55 -385 17 -1658 23 -2105
10 -555 -16 -1591 -62 -1716 -76 l-47 -5 -12 62 c-7 35 -14 128 -17 208 -5
131 -3 150 16 202 26 67 82 122 138 136 21 5 119 22 218 36 501 74 923 187
1105 295 170 102 263 250 290 463 7 56 10 1715 10 5096 l0 5013 -1167 -4
c-1121 -3 -1174 -4 -1313 -24 -540 -78 -917 -250 -1224 -559 -210 -211 -353
-440 -665 -1061 -155 -309 -160 -317 -266 -353 -113 -39 -269 -20 -397 47 -58
30 -69 40 -65 57 3 12 39 154 81 316 101 397 134 548 217 995 112 606 190 963
243 1114 22 60 20 61 -14 9 -46 -69 -54 -73 -84 -43 -22 21 -34 25 -89 25 -34
0 -68 5 -74 11 -7 7 -14 -3 -22 -36 -29 -115 -120 -247 -204 -295 -64 -37
-135 -41 -185 -10 -43 26 -45 25 -26 -11 10 -21 14 -43 10 -64 -7 -33 -26 -54
-129 -138 -47 -38 -57 -63 -36 -84 9 -9 4 -18 -20 -38 -20 -18 -58 -80 -107
-178 -76 -154 -107 -202 -157 -248 l-28 -26 31 -13 c51 -21 50 -49 -11 -166
-35 -67 -57 -100 -63 -94 -17 17 -64 11 -85 -11 -20 -22 -25 -45 -36 -154 -17
-164 -69 -209 -171 -149 -31 18 -52 24 -69 20 -29 -7 -31 -18 -11 -49 8 -12
17 -38 21 -57 4 -19 19 -49 32 -67 l24 -31 -22 -51 c-19 -46 -77 -111 -98
-111 -5 0 -11 12 -15 28 -3 15 -19 42 -35 61 l-29 33 -6 -48 c-27 -218 -88
-421 -216 -719 -156 -362 -181 -428 -200 -530 -26 -133 -42 -326 -35 -400 l7
-60 -84 83 -84 82 -46 -47 c-56 -59 -68 -81 -68 -128 0 -54 21 -85 121 -176
148 -135 165 -187 109 -322 -57 -139 -179 -377 -192 -377 -8 0 -55 -123 -125
-332 -155 -461 -210 -650 -267 -918 -22 -103 -22 -105 -4 -210 20 -121 47
-237 60 -262 14 -28 47 -21 89 17 36 32 59 44 59 29 0 -3 -25 -30 -55 -59 -30
-29 -55 -59 -55 -68 0 -8 9 -25 19 -38 18 -23 21 -23 66 -11 26 7 49 11 51 9
2 -2 -5 -26 -16 -55 -53 -140 -48 -254 24 -587 52 -233 63 -338 46 -421 -14
-67 -60 -161 -95 -194 l-24 -23 30 -44 c67 -96 97 -199 119 -408 21 -193 61
-315 140 -429 17 -25 40 -52 51 -59 20 -14 19 -15 -12 -26 -18 -6 -52 -11 -76
-11 -50 0 -83 -14 -83 -35 0 -10 10 -15 30 -15 17 0 30 -4 30 -10 0 -5 17 -14
38 -19 20 -6 69 -33 107 -61 39 -28 91 -62 116 -75 94 -49 179 -172 228 -330
12 -38 44 -180 71 -315 27 -135 61 -283 75 -330 37 -117 108 -251 168 -316 48
-53 49 -55 30 -69 -28 -20 -53 -76 -53 -120 0 -36 24 -95 38 -95 22 0 52 36
67 80 9 28 20 50 24 50 12 0 260 -257 322 -335 48 -60 164 -224 224 -318 l18
-28 -27 7 c-40 10 -56 -10 -57 -70 -1 -81 -14 -145 -38 -177 l-22 -29 23 0
c12 0 51 15 87 34 37 19 82 36 101 38 33 3 37 -1 92 -77 32 -44 110 -182 174
-306 l116 -226 66 -1 c37 -1 83 -6 102 -11 62 -19 123 -14 165 15 l38 25 46
-44 c25 -25 95 -84 154 -131 82 -65 116 -86 136 -84 16 1 62 -18 121 -51 52
-30 96 -55 98 -56 1 -1 -2 -15 -8 -30 -9 -24 -8 -26 7 -20 39 18 88 16 120 -4
17 -11 57 -58 89 -104 57 -84 102 -124 127 -112 6 4 -1 -5 -18 -20 -101 -90
-103 -96 -34 -107 24 -4 60 -10 79 -14 l35 -6 -36 -19 c-45 -22 -98 -74 -110
-106 -16 -42 -11 -95 12 -119 18 -19 25 -21 52 -12 18 6 36 15 41 19 19 17 25
9 16 -17 -14 -37 -14 -37 34 -32 52 6 85 29 120 82 32 49 42 98 28 143 -6 19
-7 33 -4 31 4 -2 56 -30 116 -62 60 -32 231 -114 380 -181 250 -112 389 -183
474 -240 l33 -22 -52 -47 c-43 -39 -48 -47 -33 -52 174 -61 284 -122 364 -203
31 -31 64 -73 74 -94 l17 -38 29 21 c36 25 70 68 70 86 0 10 14 14 50 14 61 0
68 -12 50 -82 -11 -44 -10 -51 5 -69 18 -18 17 -19 -8 -19 -14 0 -39 -11 -54
-25 l-28 -24 56 -1 c36 0 61 5 68 14 15 17 48 26 134 34 67 7 67 7 67 -18 0
-39 55 -125 121 -190 79 -78 181 -130 256 -130 39 0 55 4 59 15 10 26 -6 83
-32 115 -29 34 -27 35 48 44 55 6 49 16 74 -136 11 -73 20 -105 28 -101 6 4
55 36 109 71 55 35 101 62 103 59 3 -2 -4 -41 -15 -86 -10 -45 -16 -83 -12
-85 14 -9 85 25 136 65 177 141 175 140 242 107 35 -17 50 -33 63 -64 12 -26
32 -50 57 -65 21 -13 90 -74 154 -135 109 -104 166 -152 172 -143 2 2 12 26
22 53 38 93 104 112 262 77 120 -27 198 -27 240 -1 18 11 33 23 33 27 0 5 4
14 9 21 6 11 19 6 58 -22 110 -79 316 -154 448 -163 39 -3 187 5 329 16 143
12 329 21 414 21 155 0 155 0 137 -20 -20 -22 -20 -22 12 -39 32 -16 84 -13
117 7 16 10 61 60 100 112 84 112 121 140 184 140 l46 0 -29 -30 -28 -30 49
-21 c27 -11 64 -27 83 -36 30 -13 40 -13 100 2 188 47 429 179 631 344 l75 61
6 -39 c9 -65 54 -100 104 -81 33 13 33 57 0 129 -30 63 -27 81 13 81 25 0 29
-4 29 -30 0 -30 36 -80 58 -80 6 0 35 49 65 110 l54 110 62 0 c48 0 65 -4 78
-19 34 -38 66 -35 192 15 258 101 470 224 633 364 77 67 84 71 110 61 35 -15
51 -42 58 -102 3 -27 9 -49 13 -49 14 0 190 168 349 335 163 170 286 288 368
353 l41 32 67 -80 c37 -44 70 -80 74 -80 4 0 16 9 27 21 16 18 19 37 19 119 0
117 7 130 74 130 66 0 77 -11 45 -41 -38 -35 -81 -101 -86 -129 -3 -23 -1 -25
37 -22 60 5 121 36 138 69 8 15 17 66 21 113 4 50 14 99 25 119 21 42 88 99
100 85 4 -5 19 -60 32 -121 l23 -113 34 0 c44 0 91 21 122 55 22 23 25 37 28
113 3 77 1 94 -23 147 -15 33 -33 77 -41 98 l-13 38 37 -20 c50 -27 206 -61
278 -61 101 0 171 51 213 158 19 46 1 81 -76 149 -35 31 -71 69 -78 84 -14 27
-13 28 63 106 61 61 89 99 127 173 62 122 98 173 158 221 l49 38 50 -19 c60
-23 98 -47 98 -62 0 -6 -10 -22 -22 -35 -20 -22 -20 -24 -4 -42 9 -10 42 -26
72 -36 l56 -18 -103 -56 -104 -56 45 -5 c59 -7 61 -23 15 -115 -42 -81 -42
-116 0 -155 l23 -22 43 39 c56 50 95 136 156 341 47 159 48 162 66 141 22 -28
22 -50 -4 -93 -30 -51 -22 -86 26 -113 21 -12 42 -20 46 -17 4 2 10 27 14 56
l7 51 15 -34 c8 -19 12 -49 9 -66 -4 -26 0 -35 16 -44 50 -27 78 6 92 108 7
48 -3 58 -127 139 -139 90 -138 139 3 419 79 156 91 188 93 235 l2 56 39 -14
c32 -11 41 -11 47 0 21 32 21 92 0 238 -12 86 -19 170 -15 188 9 45 40 42 146
-13 48 -25 98 -45 112 -45 32 0 72 35 91 82 l15 37 -48 34 c-26 18 -68 45 -94
60 -104 60 -134 108 -107 172 13 30 13 30 16 5 14 -100 48 -150 103 -150 24 0
28 5 34 39 3 21 14 48 24 61 16 20 21 21 65 10 53 -14 171 -10 187 6 8 8 7 25
-1 56 -12 42 -11 48 14 91 15 25 27 54 27 65 0 10 -21 41 -47 67 -29 29 -40
45 -28 41 50 -18 120 -18 196 -1 80 19 95 29 59 40 -33 10 -49 57 -59 170 -7
77 -15 115 -31 141 -11 20 -18 39 -15 42 10 11 81 -76 121 -149 53 -96 97
-128 184 -136 57 -6 63 -4 57 11 -4 10 -14 57 -23 104 -8 48 -21 121 -29 163
-17 97 -47 161 -102 218 -24 24 -43 46 -43 47 0 1 42 16 93 33 53 18 108 44
128 60 l34 29 18 -31 18 -32 -6 80 c-4 44 -10 130 -14 190 -9 123 -27 173 -88
236 l-35 37 44 -5 c34 -4 50 0 77 19 47 31 66 66 95 177 14 51 32 104 41 117
20 31 57 31 114 -1 l44 -25 -7 41 c-10 62 -44 134 -101 214 l-52 72 42 1 c79
1 104 30 129 149 21 96 32 122 71 159 l34 32 -24 16 c-39 25 -63 85 -79 196
-9 56 -18 106 -21 111 -8 13 -4 12 40 -11 41 -21 75 -26 75 -12 0 5 -7 23 -16
41 -20 41 -13 58 33 77 21 9 62 26 91 39 l53 24 -16 31 c-28 54 -52 62 -157
54 -78 -5 -100 -4 -126 10 -38 19 -39 25 -12 54 33 35 64 37 143 8 71 -26 117
-33 117 -18 0 4 -54 61 -120 127 -95 95 -117 122 -108 133 16 18 76 48 116 57
l32 7 -20 26 c-12 15 -34 45 -50 66 -44 57 -38 120 12 147 21 11 21 11 14 -81
-5 -74 -4 -91 6 -88 7 3 41 15 76 28 34 12 62 25 62 29 0 3 -34 60 -75 126
l-75 120 59 56 c61 58 139 102 203 114 26 5 35 11 31 21 -3 8 1 14 9 14 29 0
246 -42 372 -71 95 -22 131 -27 136 -19 6 9 15 8 36 -4 l29 -15 -32 6 c-38 7
-38 10 -17 -74 l17 -65 39 5 c51 7 107 50 127 98 9 22 22 39 29 39 61 0 175
-130 250 -288 45 -94 47 -142 10 -224 -37 -81 -63 -92 -204 -89 -100 1 -113
-1 -144 -21 -19 -13 -42 -37 -51 -53 -18 -30 -18 -31 45 -210 l63 -180 -56 -5
c-49 -4 -56 -8 -59 -27 -2 -14 6 -32 22 -47 l26 -24 -24 -15 c-31 -20 -43 -77
-51 -227 -3 -63 -8 -132 -11 -152 l-6 -37 54 15 c29 7 60 14 69 14 25 0 54
-94 53 -175 0 -117 -35 -175 -228 -384 -116 -125 -146 -181 -146 -265 0 -60 1
-62 91 -191 l90 -130 -78 -7 c-43 -4 -87 -9 -97 -10 -17 -3 -9 -16 45 -83 36
-44 71 -89 77 -101 21 -39 24 -117 8 -193 l-15 -74 -183 -186 c-277 -283 -352
-398 -622 -963 -171 -358 -300 -557 -486 -751 -59 -62 -86 -97 -75 -97 9 0
-17 -23 -59 -50 -164 -110 -235 -238 -281 -504 -13 -79 -32 -164 -41 -188 -9
-23 -38 -105 -64 -180 -63 -179 -101 -249 -176 -324 -58 -58 -151 -114 -215
-129 -24 -6 -28 -3 -39 30 l-12 37 -42 -48 c-43 -48 -66 -53 -66 -13 0 11 -12
32 -26 46 -21 21 -32 25 -66 20 -22 -3 -42 -8 -45 -11 -3 -3 2 -22 12 -42 36
-75 7 -189 -78 -313 -17 -24 -59 -92 -95 -150 -35 -58 -61 -95 -57 -81 4 14
14 36 22 48 8 13 20 40 27 60 l13 37 -55 23 c-120 48 -162 20 -162 -107 0 -99
-19 -140 -140 -299 -69 -93 -124 -152 -218 -235 -70 -62 -159 -143 -199 -181
l-72 -68 -26 20 c-32 26 -117 54 -260 87 -134 31 -253 69 -319 102 l-48 24 7
-93 c4 -51 10 -121 14 -155 l7 -63 -38 0 c-54 0 -94 -24 -117 -68 -21 -42 -45
-122 -38 -129 7 -6 232 144 272 181 l34 32 35 -18 c41 -21 56 -44 56 -90 1
-29 11 -65 34 -118 12 -29 -183 -150 -241 -150 -16 0 -38 7 -50 15 -18 13 -26
13 -55 1 -18 -8 -54 -17 -80 -21 -33 -5 -49 -13 -53 -26 -3 -10 -20 -30 -37
-45 -30 -24 -32 -25 -39 -7 -4 10 -18 24 -31 32 -22 11 -30 10 -65 -7 -99 -51
-188 -195 -274 -442 -33 -95 -45 -118 -47 -95 -9 105 -33 140 -126 187 -72 36
-116 66 -116 78 0 5 19 19 43 31 75 38 317 183 317 190 0 4 -9 10 -20 14 -11
3 -28 17 -39 31 -15 19 -28 24 -63 24 -79 0 -123 -32 -223 -165 -102 -134
-137 -166 -221 -200 l-59 -24 -3 37 c-1 20 -8 47 -14 60 -39 76 -159 -68 -189
-225 l-11 -62 -34 25 c-45 35 -118 61 -220 79 -96 17 -152 12 -205 -17 -31
-17 -41 -32 -69 -106 -18 -47 -43 -95 -56 -107 -23 -22 -110 -53 -119 -43 -3
3 4 28 16 57 12 28 19 55 15 58 -13 14 -90 4 -116 -15 -14 -10 -41 -42 -61
-71 -37 -55 -47 -63 -87 -76 -22 -6 -23 -5 -13 14 13 24 -7 74 -33 84 -20 8
-123 -60 -165 -109 -36 -40 -82 -133 -122 -244 l-24 -65 -7 40 c-4 22 -7 57
-7 78 -1 20 -5 37 -9 37 -4 0 -28 -20 -52 -45 -45 -46 -158 -129 -215 -157
-50 -26 -248 -78 -293 -78 -34 0 -48 6 -67 26 l-25 27 0 -44 c0 -130 -113
-172 -404 -149 l-164 13 18 26 c18 24 38 101 27 101 -2 0 -31 -16 -63 -35
-126 -76 -243 -101 -424 -91 -242 13 -339 25 -464 55 -71 18 -154 35 -185 39
l-56 7 -17 130 c-9 72 -17 131 -17 133 -1 1 -11 2 -24 2 -53 0 -113 -67 -232
-259 -38 -62 -89 -132 -113 -156 -39 -40 -106 -75 -119 -61 -3 3 11 27 31 54
20 27 36 52 36 54 0 3 -78 8 -172 11 -187 8 -240 14 -453 53 -153 28 -275 60
-275 72 0 4 9 41 20 81 12 40 18 76 15 79 -2 3 -29 0 -57 -6 -29 -7 -99 -17
-156 -22 -57 -6 -114 -15 -128 -20 -40 -16 -49 -12 -62 23 -20 55 -78 114
-145 146 -78 38 -187 57 -421 71 -209 13 -312 29 -440 70 -143 46 -181 66
-252 132 -81 76 -102 106 -129 181 l-22 60 -93 -136 -92 -136 -87 46 c-164 88
-207 130 -231 225 -15 59 -6 125 15 108 11 -9 18 -5 35 22 23 39 26 71 6 87
-8 7 -55 18 -105 25 -50 8 -102 21 -116 30 -33 21 -78 20 -124 -3 -47 -24
-101 -85 -101 -113 0 -17 -12 -10 -67 43 -93 89 -153 133 -429 318 -283 188
-386 269 -459 360 -49 61 -115 179 -115 207 0 14 -121 47 -295 79 -306 56
-408 91 -547 187 -51 35 -123 80 -159 100 -114 64 -276 191 -326 256 -19 25
-22 36 -13 46 8 11 -1 37 -39 112 -65 132 -91 218 -91 309 0 81 18 142 56 192
14 18 23 37 20 42 -12 18 -93 60 -176 89 -181 64 -281 120 -407 227 -186 158
-239 215 -278 298 -19 39 -37 85 -41 101 -6 27 -5 28 17 23 64 -16 109 -19
109 -8 0 47 -90 136 -185 183 -36 18 -64 37 -62 43 2 5 22 17 45 25 38 13 42
18 42 48 0 44 -31 72 -114 101 -36 13 -64 27 -61 31 2 4 23 10 45 14 l41 6 -7
48 c-11 75 -43 151 -99 237 -61 91 -123 157 -349 370 -158 149 -259 263 -295
334 l-19 37 32 -4 c29 -3 38 2 74 44 23 26 41 49 38 51 -2 2 -32 8 -67 14
-179 27 -316 147 -552 481 -79 112 -146 233 -134 244 1 2 33 -24 70 -57 69
-60 98 -78 59 -36 -52 55 -112 248 -98 319 3 19 23 61 43 94 65 105 83 146 83
188 0 45 -25 106 -63 150 l-24 29 -59 -112 -59 -113 -6 56 c-7 64 -45 122 -85
132 -14 4 -43 4 -64 1 l-39 -5 14 28 c15 29 36 48 113 101 50 35 62 61 62 135
0 69 17 71 73 9 44 -49 73 -57 101 -26 14 15 64 145 141 366 4 11 -4 4 -18
-16 -44 -62 -69 -63 -159 -10 -90 55 -112 59 -151 30 l-32 -23 16 24 c45 68
103 78 243 41 44 -12 88 -21 98 -21 28 0 34 47 13 105 -24 68 -31 76 -61 64
-14 -5 -52 -9 -84 -9 -51 0 -61 3 -79 26 -12 15 -21 32 -21 39 0 18 -39 65
-54 65 -6 0 -40 -21 -75 -46 -34 -25 -64 -44 -65 -42 -2 2 -11 35 -21 73 -27
103 -30 327 -10 617 11 155 14 277 10 338 -8 111 -43 257 -77 325 l-24 47 52
53 c68 68 94 145 94 281 0 158 62 413 120 493 44 60 81 76 172 74 89 -1 88 -3
88 117 0 105 -23 202 -69 295 -42 83 -122 190 -144 190 -19 0 -20 -52 -2 -98
14 -34 14 -39 1 -28 -30 25 -48 104 -53 236 -2 72 -1 148 4 169 l9 40 58 -150
c32 -82 79 -188 104 -236 43 -82 124 -189 135 -178 19 18 -58 311 -138 529
-24 69 -43 126 -41 128 2 2 57 8 122 14 65 6 120 12 122 14 2 2 -4 17 -12 34
-33 63 -14 116 55 151 21 11 46 31 55 45 15 23 14 28 -10 81 l-26 57 -41 -6
c-40 -5 -41 -5 -34 21 3 15 9 68 12 117 5 81 2 98 -22 165 -64 178 -68 194
-69 282 -1 47 2 89 6 93 3 3 25 -3 47 -15 l41 -21 11 28 c7 19 7 53 -2 114
-17 129 3 174 90 199 28 8 31 7 27 -8 -3 -9 -12 -46 -21 -82 -9 -36 -18 -73
-21 -82 -5 -16 2 -18 54 -18 76 0 124 17 244 88 104 61 110 69 87 129 -17 47
-59 81 -131 109 -108 41 -130 74 -48 74 39 0 54 -5 68 -22 45 -55 85 -98 93
-98 5 0 9 19 9 43 0 23 7 85 15 137 41 262 29 444 -41 624 -6 16 -5 17 16 6
20 -11 25 -10 36 5 28 38 37 127 30 298 -7 181 -1 229 38 273 23 27 46 26 46
-2 0 -44 100 35 124 99 9 23 25 92 35 153 20 115 52 196 96 240 30 30 92 32
153 4 23 -10 49 -17 57 -14 19 8 19 -13 0 -46 -8 -14 -14 -39 -15 -57 0 -39
21 -53 82 -53 38 0 49 5 82 39 61 62 60 98 -3 225 -56 114 -61 145 -31 194 23
37 30 39 50 12 8 -11 17 -20 21 -20 16 0 279 547 279 580 0 5 -7 10 -15 12
-12 2 -11 6 6 16 20 13 21 12 15 -3 -6 -16 -2 -17 35 -11 86 14 166 68 236
159 26 34 106 129 177 210 191 218 287 283 432 294 72 6 75 7 51 20 -37 19
-47 43 -47 108 0 52 1 55 19 46 15 -9 22 -6 35 14 21 32 20 74 -4 137 -25 66
-25 78 -1 78 34 0 75 61 105 154 16 49 38 99 51 111 16 17 21 31 17 53 -5 35
16 70 63 106 l33 25 -10 -33 c-18 -56 -3 -98 58 -167 31 -34 61 -75 66 -91
l10 -29 25 23 c14 13 35 41 48 63 32 54 102 250 110 311 16 103 44 174 90 220
24 24 55 46 70 50 14 3 75 -3 136 -14 99 -17 109 -18 103 -3 -23 57 -24 120
-2 164 5 10 36 47 69 83 32 37 59 74 59 84 0 17 2 17 58 1 79 -24 118 -46 144
-81 l22 -30 30 29 c17 16 60 45 96 65 98 53 125 87 121 150 -1 17 -7 18 -58
13 l-58 -7 40 21 c49 26 109 74 195 154 36 34 96 83 134 110 38 27 103 79 144
117 101 92 166 123 255 123 l69 0 63 -168 c35 -93 66 -171 69 -174 13 -13 93
-5 126 12 19 10 69 53 110 96 87 89 126 107 191 85 44 -15 52 -5 14 20 -36 24
-38 46 -10 109 14 32 24 60 22 62 -10 10 -60 -21 -130 -81 -43 -36 -92 -73
-109 -82 -29 -15 -28 -12 42 121 40 75 70 138 68 141 -3 2 -58 -36 -124 -84
-65 -48 -134 -98 -153 -111 l-33 -24 36 68 c20 37 36 77 36 88 0 11 -20 40
-45 63 l-44 43 35 30 c19 17 47 33 62 37 15 3 32 7 38 9 5 1 48 -3 95 -11 102
-16 144 -8 198 42 21 18 43 34 48 34 16 0 41 -33 75 -100 18 -35 45 -73 60
-84 l28 -20 23 22 c56 53 166 66 302 36 107 -24 150 -27 174 -15 18 10 21 9
21 -9 0 -28 11 -26 94 20 86 47 115 76 126 124 l8 36 -53 0 -54 0 68 70 c56
59 73 70 102 71 18 1 47 2 63 3 25 1 33 9 54 50 32 64 40 151 18 195 l-17 32
31 -16 c37 -19 70 -70 70 -107 0 -33 0 -33 49 -8 74 37 102 88 117 215 12 98
56 128 159 106 20 -4 26 -9 18 -14 -7 -5 -13 -17 -13 -28 0 -19 5 -20 60 -17
37 2 56 0 50 -7 -17 -16 -11 -54 20 -115 16 -32 27 -66 24 -74 -6 -17 -55 -36
-90 -36 -32 0 -30 -15 5 -51 39 -38 81 -38 174 2 40 17 99 33 131 36 52 5 63
11 90 41 59 66 67 109 40 217 -14 54 -14 70 -4 95 14 34 18 36 34 14 13 -17
154 -59 165 -49 3 4 -9 33 -27 65 -17 32 -32 61 -32 64 0 5 44 12 90 14 l25 1
-23 -12z m1984 -476 c-8 -12 -46 -21 -46 -11 0 9 18 18 38 19 7 1 11 -3 8 -8z
m3197 -578 c2 -5 -7 -26 -19 -48 l-24 -40 0 41 c0 22 3 44 7 47 9 9 31 9 36 0z
m-2883 -178 c0 -21 -36 -55 -57 -54 -26 1 -62 17 -43 19 8 1 31 12 50 25 42
28 50 30 50 10z m-174 -26 c32 -8 41 -14 32 -20 -27 -18 -128 0 -128 22 0 12
42 11 96 -2z m1813 -401 c-17 -29 -34 -57 -38 -61 -4 -4 -24 17 -44 47 l-36
55 32 4 c18 2 51 5 74 5 l42 2 -30 -52z m-4870 -124 c2 -23 -27 -45 -77 -58
l-52 -14 20 28 c11 15 20 33 20 39 0 6 6 8 13 5 7 -2 24 7 37 21 22 24 25 24
31 8 4 -10 8 -23 8 -29z m7518 -406 l24 -53 -30 29 c-33 32 -46 60 -36 77 9
14 13 9 42 -53z m-11767 -664 c0 -8 -5 -12 -10 -9 -6 4 -8 11 -5 16 9 14 15
11 15 -7z m-811 -720 c24 -17 60 -86 61 -116 0 -25 -20 -23 -105 13 -84 35
-93 52 -50 94 28 29 61 32 94 9z m1131 -852 c-7 -3 -19 3 -28 13 -16 15 -15
16 12 4 15 -7 23 -15 16 -17z m14308 -548 c-2 -9 -22 -30 -44 -46 -40 -29 -43
-29 -67 -14 -13 9 -41 17 -61 18 -45 2 -42 5 36 34 76 28 141 32 136 8z m137
-198 l34 -15 -15 -38 c-25 -60 -38 -69 -68 -49 -20 13 -26 25 -26 54 0 36 14
62 32 62 5 0 24 -6 43 -14z m13 -703 c-14 -16 -31 -37 -37 -48 -11 -18 -12
-17 -6 10 6 30 37 65 58 65 6 0 -1 -12 -15 -27z m430 -247 l3 -67 -30 22 c-29
21 -31 21 -56 5 -14 -9 -35 -32 -48 -51 -12 -19 -25 -35 -28 -35 -3 0 -16 37
-29 83 -13 45 -26 89 -28 97 -3 8 7 0 22 -17 38 -45 79 -45 132 2 21 19 44 33
49 31 6 -1 11 -33 13 -70z m-590 -1386 c2 -19 -10 -69 -28 -120 -26 -71 -30
-92 -21 -109 10 -19 9 -20 -11 -12 -20 8 -23 15 -22 67 0 66 49 217 68 211 6
-2 12 -18 14 -37z m-17188 -213 c0 -8 -15 -33 -32 -57 -18 -23 -48 -63 -65
-87 l-33 -45 -11 28 c-15 42 -3 86 34 122 46 45 107 67 107 39z m17288 -357
l27 -8 -31 -1 c-20 -1 -34 5 -38 15 -3 9 -2 12 5 8 6 -3 23 -10 37 -14z m-20
-45 c6 -14 10 -25 9 -25 -2 0 -14 11 -27 25 -18 19 -20 25 -8 25 8 0 20 -11
26 -25z m32 -675 c0 -5 -4 -10 -10 -10 -5 0 -10 5 -10 10 0 6 5 10 10 10 6 0
10 -4 10 -10z m70 -114 c0 -5 -7 -3 -15 4 -8 7 -15 20 -15 28 0 13 3 12 15 -4
8 -10 15 -23 15 -28z m285 -100 c28 -9 77 -32 110 -51 l60 -34 -50 -1 c-76 -1
-82 -10 -39 -56 68 -72 90 -156 60 -228 -20 -48 -75 -106 -100 -106 -37 0 -66
36 -66 80 0 21 -2 45 -6 53 -3 10 4 16 24 20 16 3 44 20 61 38 26 26 31 38 29
67 -3 33 -7 36 -53 52 -63 22 -131 56 -172 87 -18 14 -58 36 -90 48 -61 25
-60 28 11 46 43 11 161 3 221 -15z m-2331 -5883 c16 -20 23 -33 15 -28 -43 25
-69 48 -64 56 10 15 19 10 49 -28z m-10796 -1546 c-13 -41 -28 -49 -28 -15 0
19 29 63 36 55 2 -2 -2 -20 -8 -40z m2762 -1116 c0 -5 -7 -11 -15 -15 -15 -5
-20 5 -8 17 9 10 23 9 23 -2z m6568 -19 c9 -7 8 -13 -8 -27 -11 -10 -20 -13
-20 -7 0 6 -3 17 -6 26 -7 17 12 21 34 8z m-8134 -1211 c50 -27 54 -31 30 -31
-16 0 -67 16 -114 36 l-85 35 55 -4 c35 -3 77 -17 114 -36z"/>
<path d="M14143 3057 c-40 -23 -72 -45 -73 -49 0 -5 35 -8 78 -8 44 0 83 -5
89 -11 15 -15 33 -2 33 24 0 24 -35 87 -47 86 -5 0 -40 -19 -80 -42z"/>
<path d="M15392 2477 c-33 -34 -39 -46 -30 -55 18 -18 49 -14 74 9 18 17 21
26 13 51 -4 17 -10 32 -12 34 -2 2 -22 -16 -45 -39z"/>
</g>
</svg>
