<?xml version="1.0" standalone="no"?>
<!DOCTYPE svg PUBLIC "-//W3C//DTD SVG 20010904//EN"
 "http://www.w3.org/TR/2001/REC-SVG-20010904/DTD/svg10.dtd">
<svg version="1.0" xmlns="http://www.w3.org/2000/svg"
 width="2133.000000pt" height="2133.000000pt" viewBox="0 0 2133.000000 2133.000000"
 preserveAspectRatio="xMidYMid meet">
<metadata>
Created by potrace 1.11, written by Peter Selinger 2001-2013
</metadata>
<g transform="translate(0.000000,2133.000000) scale(0.100000,-0.100000)"
fill="#000000" stroke="none">
<path d="M681 21319 c-301 -59 -543 -273 -644 -569 l-32 -95 -3 -9955 c-2
-9091 -1 -9962 14 -10035 63 -318 315 -576 634 -650 58 -13 1198 -15 10011
-15 7140 0 9962 3 10005 11 145 27 311 116 424 229 113 113 202 279 229 424 8
43 11 2865 11 10005 0 8813 -2 9953 -15 10011 -74 318 -330 569 -647 634 -70
15 -983 16 -10010 15 -5585 -1 -9952 -5 -9977 -10z m8662 -1007 l-31 -17 150
-75 151 -75 91 0 c70 0 99 4 126 19 l35 18 -26 -28 c-69 -74 -84 -132 -48
-178 33 -42 51 -47 102 -30 25 9 56 14 69 12 20 -3 24 -10 29 -66 4 -39 13
-73 26 -89 34 -46 46 -49 99 -22 40 20 54 34 77 79 15 30 39 66 54 79 26 23
32 24 130 18 118 -7 121 -4 78 72 l-25 43 22 -6 c13 -4 120 -11 238 -16 148
-7 237 -15 286 -28 l72 -18 -20 26 c-23 32 -16 55 23 75 37 19 42 19 34 -4
-13 -41 33 -70 281 -177 5 -3 17 10 26 28 l16 33 11 -29 c17 -42 5 -66 -46
-88 -24 -11 -53 -28 -64 -39 -20 -20 -55 -27 -44 -8 4 5 18 14 32 20 32 12 27
40 -11 54 -25 9 -31 6 -61 -27 -79 -86 -44 -266 64 -326 46 -26 62 -27 104 -6
45 23 86 63 109 108 16 30 19 54 16 116 l-3 78 56 -5 c73 -7 102 8 210 113
103 98 140 114 216 94 40 -11 64 -29 148 -114 152 -152 259 -252 306 -283 40
-26 42 -27 55 -8 8 10 14 33 14 50 0 27 -11 43 -65 92 -37 34 -65 68 -65 79 1
18 27 62 33 53 82 -126 117 -157 198 -179 61 -17 149 -7 309 36 178 47 317 56
404 25 65 -23 126 -65 126 -86 0 -8 -19 -53 -42 -99 -23 -47 -40 -87 -37 -90
21 -21 279 -75 279 -58 0 4 -23 33 -50 65 -28 32 -50 63 -50 69 0 16 85 3 153
-22 108 -41 157 -110 112 -160 -14 -15 -11 -16 38 -12 61 5 188 -13 222 -31
13 -6 60 -48 106 -92 58 -55 72 -72 45 -56 l-37 23 -15 -20 c-8 -11 -28 -23
-44 -27 -17 -4 -30 -10 -30 -15 0 -14 101 -98 140 -117 21 -10 69 -18 123 -21
48 -2 87 -8 87 -12 0 -4 -5 -22 -11 -40 -14 -39 3 -131 28 -151 10 -9 53 -14
132 -14 104 -1 131 -6 265 -44 82 -23 171 -45 197 -48 43 -5 47 -8 39 -24 -14
-26 -12 -39 8 -46 165 -57 191 -79 386 -323 73 -91 163 -193 199 -226 67 -61
180 -126 243 -139 29 -5 32 -4 32 19 0 29 26 74 48 83 29 11 82 -9 197 -72 64
-36 131 -68 147 -72 17 -3 30 -7 30 -8 0 -1 -7 -19 -15 -38 -15 -37 -20 -108
-9 -120 4 -4 22 7 41 23 39 34 78 39 126 13 18 -9 48 -19 67 -22 47 -8 50 -37
11 -106 -39 -69 -39 -95 0 -140 24 -27 39 -35 66 -35 43 0 85 21 115 59 l23
30 1 -52 c1 -67 27 -144 69 -207 30 -45 32 -50 14 -50 -12 0 -28 14 -41 35
-11 20 -26 34 -32 32 -18 -6 -36 -49 -36 -87 0 -20 -7 -46 -16 -58 -32 -47 13
-56 80 -17 45 26 70 25 81 -2 8 -21 -2 -26 -90 -47 -41 -10 -75 -22 -75 -26 0
-15 43 -40 70 -40 24 -1 24 -1 5 -12 -51 -27 -166 -161 -151 -175 3 -3 28 -8
55 -11 68 -6 131 25 172 84 16 24 52 94 79 155 27 61 56 122 65 136 l16 24 28
-38 c39 -54 111 -118 163 -144 23 -12 110 -46 191 -75 82 -29 160 -60 174 -70
l27 -17 -39 -31 c-22 -17 -53 -43 -70 -57 l-29 -27 54 -17 c64 -19 171 -31
197 -21 17 7 17 8 -1 22 -18 13 -13 14 50 13 l69 -1 -48 -15 -47 -14 31 -26
c29 -25 102 -124 95 -130 -1 -2 -24 6 -50 18 -54 23 -96 20 -156 -12 -75 -40
-75 -41 -28 -91 24 -24 74 -79 111 -121 82 -93 130 -120 210 -120 45 0 57 -4
57 -16 0 -9 41 -137 91 -285 64 -187 92 -284 92 -318 1 -42 6 -55 35 -86 18
-21 72 -95 118 -165 104 -155 137 -182 228 -182 57 0 60 -2 72 -30 8 -19 13
-79 14 -162 0 -80 5 -142 12 -158 16 -35 57 -55 112 -55 l45 0 -15 -42 c-22
-64 -30 -70 -68 -51 -42 22 -96 33 -125 26 -21 -5 -23 -10 -18 -50 6 -52 32
-84 120 -146 31 -22 60 -50 63 -63 7 -27 -17 -76 -52 -103 -30 -23 -25 -37 20
-56 36 -15 56 -5 56 30 0 27 36 75 57 75 11 0 6 -10 -15 -34 -60 -69 -55 -121
23 -256 63 -109 90 -186 82 -241 -5 -38 -4 -39 27 -39 24 0 38 7 54 30 24 32
42 36 89 19 l31 -10 -24 -24 c-24 -24 -29 -50 -17 -93 6 -23 9 -24 62 -17 31
4 76 8 100 10 l45 2 -43 -38 c-76 -68 -184 -146 -284 -207 l-98 -60 33 -25
c74 -55 94 -60 208 -53 123 8 134 3 180 -77 34 -59 36 -67 16 -67 -19 0 -46
-44 -46 -74 0 -13 20 -52 45 -87 85 -119 111 -189 106 -288 -1 -27 -4 -32 -13
-23 -13 13 -73 14 -121 3 l-29 -6 41 -51 c45 -57 48 -64 26 -64 -18 0 -55 -57
-55 -84 0 -10 14 -34 30 -53 33 -37 36 -53 19 -102 l-11 -31 -30 25 c-36 31
-104 33 -163 6 -77 -35 -75 -38 56 -131 65 -46 117 -85 116 -86 -1 -1 -59 8
-129 20 -124 22 -128 22 -128 4 0 -29 41 -104 114 -207 126 -177 145 -247 85
-316 -29 -32 -86 -71 -94 -63 -1 2 -12 22 -24 46 -13 26 -28 42 -39 42 -30 0
-110 -57 -127 -89 -21 -41 -11 -73 35 -115 41 -37 92 -52 140 -43 l29 6 -16
-37 c-8 -20 -17 -39 -18 -40 -2 -2 -23 5 -47 16 -82 36 -153 137 -228 327 -17
42 -30 78 -30 81 0 3 26 -16 58 -42 31 -26 72 -53 90 -61 35 -15 82 -8 82 11
0 14 -49 86 -154 224 -40 54 -81 109 -90 124 l-18 28 43 -19 c49 -22 209 -64
216 -58 2 3 7 21 10 41 7 46 -12 70 -77 91 -53 17 -104 58 -98 78 6 19 98 77
122 77 21 0 21 3 -18 81 -31 63 -41 95 -44 146 -4 62 12 173 25 173 3 0 21
-11 40 -26 38 -29 94 -54 121 -54 11 0 31 9 46 21 25 19 25 22 11 49 -31 60
-116 149 -251 262 -86 72 -160 144 -194 188 -30 40 -76 97 -103 128 -26 30
-59 80 -74 111 -25 50 -29 72 -34 191 -8 158 -30 254 -73 318 -34 50 -91 94
-115 90 -9 -2 -28 -32 -42 -68 -28 -71 -52 -86 -82 -52 -17 19 -16 20 13 32
41 17 50 36 48 103 -1 55 -2 56 -35 62 -67 12 -123 86 -123 163 0 40 -30 89
-63 106 -18 8 -26 16 -19 16 17 0 38 52 52 131 10 55 16 67 43 84 18 11 42 41
55 67 26 56 48 65 119 50 26 -6 49 -9 50 -8 2 1 -20 17 -47 35 -52 34 -89 81
-133 167 -57 112 -115 152 -232 161 -40 3 -89 3 -108 -1 -33 -6 -36 -10 -39
-44 -3 -34 -5 -30 -22 38 -10 41 -22 77 -26 80 -3 3 -11 32 -17 65 -6 33 -21
87 -34 121 l-23 61 22 89 c13 48 25 90 27 92 7 7 50 -21 105 -68 77 -66 97
-75 105 -50 16 51 -21 108 -95 145 -19 10 -72 31 -119 46 -88 30 -151 66 -151
85 0 26 51 25 97 -1 25 -14 53 -25 63 -25 23 0 70 38 70 56 0 27 -76 89 -170
139 l-93 50 38 14 c36 14 37 15 32 58 -9 84 -58 102 -172 63 -32 -11 -69 -20
-83 -20 -24 0 -25 2 -19 50 5 38 3 49 -6 44 -7 -4 -29 -18 -50 -31 l-39 -24 7
23 c54 169 99 233 162 226 40 -5 42 5 7 28 -30 20 -153 30 -204 17 l-35 -9 -1
-71 c-1 -55 -7 -80 -23 -107 -13 -20 -28 -36 -35 -36 -21 0 -316 149 -316 159
0 17 47 24 81 12 l32 -11 -6 37 c-10 61 -63 156 -117 211 -67 68 -157 120
-315 182 -210 82 -292 120 -363 170 -109 76 -174 171 -208 302 -25 98 -24 96
-39 61 -15 -35 -27 -40 -116 -46 l-57 -3 -173 170 c-96 94 -184 190 -197 213
l-22 41 35 12 c48 16 51 27 13 44 -245 106 -479 203 -545 226 -75 27 -136 54
-172 79 -12 8 -10 16 14 48 15 21 35 43 43 50 11 10 7 14 -25 22 -50 14 -97
63 -167 177 -31 51 -63 95 -72 98 -36 14 -63 5 -94 -30 l-31 -36 23 -26 23
-25 -35 21 c-19 11 -70 34 -112 51 -200 80 -655 150 -793 121 -5 -1 -38 -2
-72 -1 l-63 1 0 40 c0 49 17 60 99 60 57 0 61 2 76 30 8 16 15 45 15 64 0 33
-3 36 -52 54 -77 29 -169 41 -384 52 -191 9 -247 17 -337 46 l-49 16 33 28 33
27 -43 22 c-23 12 -52 21 -64 19 -20 -3 -23 -11 -28 -77 -6 -76 -20 -101 -60
-101 -42 0 -47 9 -42 68 5 52 3 61 -22 90 -15 18 -30 32 -35 32 -5 0 -29 -30
-55 -66 -26 -36 -49 -64 -51 -61 -4 3 19 96 31 129 6 16 2 16 -41 -4 -38 -16
-79 -22 -189 -28 -155 -9 -185 -17 -232 -63 -40 -38 -42 -29 -13 91 11 46 20
105 20 132 0 48 0 48 -46 66 -61 23 -131 9 -215 -41 l-59 -36 -26 30 c-32 38
-92 74 -165 100 -30 10 -67 26 -84 35 -16 9 -47 16 -67 16 -35 0 -38 -2 -48
-42 -26 -106 -34 -124 -68 -155 -20 -18 -34 -34 -31 -36 2 -3 39 -24 82 -49
96 -55 91 -58 -103 -58 l-135 0 33 20 c17 11 46 29 63 39 l32 19 -24 13 c-39
22 -135 14 -254 -19 -60 -17 -127 -33 -147 -37 -43 -7 -44 -8 -22 -70 15 -45
15 -46 -8 -66 -18 -15 -82 -49 -93 -49 -1 0 -5 14 -9 31 -7 38 -63 96 -102
105 -55 12 -74 31 -74 72 0 20 4 53 10 71 5 19 8 36 7 37 -2 2 -36 8 -76 15
-55 8 -93 8 -152 -1 -102 -14 -157 -34 -353 -124 -181 -83 -383 -150 -348
-115 6 7 12 27 12 45 0 29 -3 32 -42 37 -43 6 -112 -4 -159 -22 -31 -11 -65
-62 -78 -117 -9 -38 -9 -37 -10 24 -1 44 -5 62 -14 62 -22 0 -83 -71 -117
-138 -30 -57 -86 -118 -132 -143 -15 -8 -15 -5 -6 27 16 60 -1 99 -49 113
l-30 9 5 -48 c3 -38 -1 -60 -19 -97 l-24 -48 -6 90 c-9 145 -36 176 -169 195
-39 6 -84 17 -99 25 -29 15 -61 76 -61 118 0 15 -10 4 -33 -38 -18 -33 -44
-78 -59 -100 -82 -129 -117 -234 -99 -295 17 -57 35 -68 71 -42 28 21 29 21
35 2 15 -46 -10 -72 -84 -89 l-41 -9 20 33 c33 54 23 56 -44 9 -77 -53 -174
-99 -311 -147 -241 -84 -454 -178 -570 -251 -27 -18 -56 -36 -64 -41 -8 -5 2
21 22 57 61 109 45 139 -59 112 -163 -43 -281 -122 -499 -334 -163 -158 -170
-167 -175 -210 l-5 -45 -24 40 c-13 22 -26 57 -28 77 -5 36 -5 37 56 68 113
57 167 124 154 194 -3 14 -7 26 -10 26 -2 0 -50 -27 -106 -60 -97 -56 -167
-111 -167 -132 0 -5 -37 -48 -82 -96 -118 -124 -289 -321 -424 -487 l-117
-142 -54 28 c-93 49 -172 32 -237 -49 -45 -56 -116 -168 -116 -183 0 -20 -76
-54 -144 -64 l-48 -7 22 -23 c12 -13 24 -42 27 -65 l6 -41 29 53 c37 68 71
103 127 131 75 36 139 34 1441 -60 227 -17 498 -18 3780 -18 l3535 0 395 28
c217 15 519 37 670 48 151 11 345 21 430 22 l155 2 55 -31 c96 -54 145 -147
226 -429 46 -160 130 -580 203 -1015 82 -488 129 -689 258 -1123 30 -103 54
-189 52 -190 -2 -2 -56 -25 -119 -51 -96 -41 -128 -49 -197 -54 -103 -6 -187
11 -256 52 -59 35 -58 33 -212 364 -100 216 -220 444 -318 607 -378 628 -887
921 -1711 985 -75 6 -578 10 -1208 10 l-1078 0 2 -5067 3 -5068 22 -76 c12
-42 36 -105 54 -140 41 -82 161 -203 249 -252 214 -118 642 -222 1165 -282
153 -18 186 -30 222 -85 37 -54 47 -107 46 -240 -1 -103 -22 -283 -35 -295 -2
-2 -106 3 -233 10 -231 14 -648 34 -1170 57 -382 17 -1992 17 -2395 0 -446
-18 -1124 -51 -1285 -61 -77 -5 -141 -8 -143 -6 -12 11 -32 199 -33 295 0 136
17 204 64 253 44 46 93 61 302 92 481 70 875 172 1080 278 153 79 260 214 312
392 17 57 18 319 21 5128 l2 5067 -1078 0 c-637 0 -1132 -4 -1208 -10 -832
-65 -1359 -368 -1737 -997 -97 -161 -224 -399 -358 -669 -65 -132 -131 -252
-146 -267 -69 -65 -219 -94 -356 -67 -68 13 -205 74 -213 94 -3 8 22 116 55
242 112 425 153 614 286 1329 66 353 133 663 174 800 l29 99 -33 -39 c-19 -22
-34 -43 -35 -47 0 -16 -19 -7 -25 11 -8 27 -57 44 -102 37 -26 -5 -44 -2 -57
7 -18 13 -21 10 -45 -62 -74 -220 -256 -352 -378 -275 -31 19 -34 18 -23 -12
24 -63 7 -93 -101 -180 -72 -57 -80 -75 -52 -106 14 -16 14 -18 0 -18 -25 0
-79 -84 -150 -230 -46 -96 -79 -150 -114 -187 l-49 -53 28 -9 c50 -18 47 -51
-12 -167 -48 -94 -70 -123 -70 -93 0 6 -14 9 -32 7 -50 -5 -67 -39 -79 -153
-12 -114 -36 -176 -76 -194 -24 -11 -34 -9 -86 18 -67 35 -80 37 -95 18 -9
-10 -8 -19 2 -33 8 -11 18 -38 22 -60 4 -21 17 -52 30 -67 13 -16 24 -33 24
-38 0 -25 -46 -102 -76 -129 -41 -35 -54 -38 -54 -10 0 11 -15 37 -33 57 l-34
36 -12 -89 c-27 -195 -93 -401 -228 -714 -185 -427 -200 -481 -210 -768 l-6
-174 -82 82 -81 81 -47 -50 c-52 -55 -67 -86 -67 -134 0 -44 20 -70 142 -189
117 -114 135 -149 117 -228 -15 -67 -198 -448 -218 -453 -14 -3 -50 -99 -149
-398 -188 -565 -269 -879 -258 -993 7 -73 55 -305 67 -328 15 -28 48 -21 90
17 38 34 59 44 59 27 0 -4 -22 -30 -50 -57 -54 -53 -62 -81 -31 -109 18 -17
24 -17 70 -3 28 8 51 14 51 12 0 -1 -12 -29 -27 -61 -27 -57 -28 -66 -28 -214
1 -150 2 -162 50 -365 44 -190 49 -222 49 -330 0 -138 -18 -201 -79 -272 -19
-23 -35 -44 -35 -47 0 -3 16 -30 35 -60 54 -84 82 -184 105 -367 11 -90 27
-191 35 -224 20 -81 88 -215 135 -265 l38 -41 -26 -11 c-15 -5 -56 -13 -91
-16 -72 -8 -99 -32 -36 -32 28 0 36 -3 32 -14 -4 -10 4 -17 26 -22 18 -3 66
-30 107 -58 41 -29 102 -68 134 -87 141 -82 204 -219 282 -614 58 -294 84
-386 145 -512 36 -73 66 -119 108 -162 32 -33 55 -58 50 -55 -12 7 -49 -33
-65 -72 -28 -67 -10 -144 33 -144 19 0 29 11 48 53 14 28 25 58 25 65 0 6 4
12 9 12 12 0 262 -268 334 -357 55 -69 194 -269 216 -311 11 -21 10 -22 -14
-16 -42 10 -55 -10 -55 -85 0 -80 -15 -138 -43 -168 l-20 -23 22 0 c12 0 52
16 89 35 37 19 83 37 103 40 l36 7 66 -99 c36 -54 114 -192 174 -308 l109
-210 37 3 c21 2 73 -4 114 -13 89 -20 140 -16 182 14 l30 22 88 -76 c143 -123
231 -188 249 -181 16 6 59 -13 162 -72 58 -34 62 -38 56 -65 -5 -26 -4 -28 14
-18 12 6 36 11 56 11 44 0 84 -33 138 -114 58 -86 88 -116 117 -116 24 0 21
-5 -34 -54 -33 -30 -57 -57 -54 -60 3 -3 32 -11 65 -16 116 -20 114 -20 74
-36 -106 -45 -163 -165 -107 -229 l22 -26 48 24 c47 24 48 24 41 3 -11 -35
-10 -40 9 -44 31 -6 65 7 102 40 61 53 84 122 62 187 l-14 38 171 -88 c94 -48
253 -124 354 -168 221 -98 301 -138 410 -203 l84 -50 -46 -47 c-25 -26 -46
-49 -46 -53 0 -3 15 -9 33 -12 18 -3 82 -30 142 -60 124 -61 226 -145 265
-219 l24 -45 37 30 c21 17 43 43 49 59 11 26 17 29 60 29 65 0 74 -13 54 -79
-16 -56 -13 -68 20 -81 19 -8 19 -9 -7 -9 -32 -1 -87 -27 -87 -41 0 -19 86
-11 112 10 14 10 28 17 31 14 3 -3 14 -1 24 4 10 5 46 12 79 15 l61 6 6 -35
c13 -82 145 -227 253 -280 72 -35 167 -45 178 -19 9 25 -11 90 -39 123 l-24
29 62 6 c34 3 65 3 68 -1 4 -4 14 -58 24 -120 13 -84 21 -112 31 -108 7 3 58
34 114 70 110 72 111 72 85 -24 -8 -30 -15 -63 -15 -72 0 -41 73 -7 180 82
120 100 140 106 212 61 33 -21 48 -38 53 -60 4 -20 19 -38 43 -53 20 -12 82
-65 137 -118 107 -103 184 -170 196 -170 3 0 9 14 13 31 3 17 15 44 27 60 44
63 111 73 259 39 47 -11 111 -20 144 -20 55 0 61 2 98 40 l40 39 61 -41 c83
-56 191 -101 322 -134 l109 -27 291 21 c159 12 362 22 449 22 154 0 159 -1
142 -19 -14 -16 -15 -20 -2 -30 9 -7 33 -15 55 -18 56 -8 90 17 162 114 33 45
76 96 94 112 38 33 93 52 125 44 21 -5 20 -6 -6 -34 l-27 -29 36 -15 c20 -8
53 -22 73 -30 51 -21 91 -19 186 11 161 51 418 198 569 326 82 69 88 73 82 48
-14 -54 27 -110 81 -110 54 0 60 36 20 125 -29 67 -26 85 16 85 26 0 30 -3 30
-29 0 -30 33 -81 54 -81 6 0 36 49 66 110 l54 110 59 0 c44 0 65 -5 87 -22 40
-29 70 -27 180 17 252 99 480 230 643 370 64 55 82 66 102 61 33 -8 56 -46 63
-101 2 -25 9 -48 14 -51 5 -3 152 137 326 313 276 278 425 415 435 402 34 -46
132 -159 138 -159 5 0 16 11 25 26 13 19 17 46 15 116 -2 114 8 128 85 128 29
0 56 -5 60 -11 3 -6 -14 -32 -39 -57 -48 -50 -67 -81 -67 -108 0 -14 7 -16 50
-11 98 12 140 60 140 159 0 85 24 150 70 192 22 20 46 36 53 36 8 0 22 -42 38
-117 l25 -118 50 3 c91 4 134 61 134 176 0 56 -6 82 -34 145 -38 85 -50 121
-41 121 3 0 17 -7 30 -16 33 -21 218 -64 280 -64 94 0 174 58 210 153 16 41
16 47 0 76 -9 17 -42 52 -75 77 -32 26 -66 61 -75 80 l-16 33 74 73 c59 59 84
95 132 188 47 90 74 130 127 183 37 37 72 67 78 67 23 0 141 -60 146 -74 3 -9
-4 -27 -15 -42 -27 -35 -17 -47 60 -75 33 -12 59 -23 59 -25 0 -2 -46 -27
-102 -56 l-103 -53 42 -3 c66 -5 70 -20 29 -99 -39 -75 -45 -125 -20 -161 22
-32 47 -27 86 16 49 54 75 113 139 315 53 167 57 176 72 159 23 -25 21 -53 -5
-107 -26 -52 -21 -66 32 -103 39 -26 44 -22 55 47 l7 45 15 -28 c14 -27 19
-67 12 -95 -2 -9 7 -19 24 -25 38 -14 61 13 76 89 l12 60 -33 28 c-18 16 -65
49 -104 74 -126 80 -133 154 -32 348 28 55 67 131 87 169 28 54 36 83 39 138
4 63 6 68 21 55 23 -20 59 -27 70 -13 21 25 22 95 2 223 -22 140 -26 210 -12
231 11 19 51 7 149 -44 46 -24 94 -44 106 -44 33 0 60 24 81 70 l19 42 -31 28
c-17 15 -63 46 -101 69 -113 66 -146 124 -107 191 l14 25 1 -30 c1 -85 48
-159 97 -153 22 3 28 10 38 52 14 53 29 69 60 61 45 -12 152 -17 185 -8 26 7
34 15 32 29 -1 10 -5 35 -8 55 -5 29 0 47 21 82 32 56 29 72 -32 128 l-46 42
34 -7 c83 -17 126 -18 184 -1 94 26 92 25 65 38 -37 18 -51 58 -60 166 -10
111 -21 145 -58 185 l-27 28 31 -15 c41 -21 85 -72 123 -144 54 -100 97 -135
183 -148 59 -9 70 -3 57 33 -5 15 -20 90 -33 168 -27 165 -55 235 -120 297
l-45 44 84 27 c47 15 107 42 135 61 l51 34 9 -24 c16 -42 23 -28 16 33 -4 31
-11 112 -15 178 -10 137 -27 188 -84 251 l-36 39 47 0 c88 -2 125 44 169 208
13 50 31 98 40 108 23 26 72 22 117 -8 l39 -27 -6 38 c-9 53 -66 169 -116 235
l-42 55 52 5 c68 7 101 43 117 126 21 105 33 135 67 173 l34 38 -29 28 c-35
33 -54 90 -70 203 -6 46 -14 91 -18 100 -4 12 1 11 22 -6 17 -13 43 -22 63
-22 l34 0 -16 31 c-28 53 -18 68 65 101 97 38 108 49 90 84 -24 44 -58 55
-157 48 -72 -6 -95 -4 -121 10 -38 20 -40 29 -7 61 31 32 65 32 150 0 122 -46
121 -34 -16 109 l-123 128 25 19 c13 11 49 27 81 36 l56 18 -38 45 c-67 81
-77 126 -39 174 35 45 42 33 37 -64 -4 -79 -2 -90 11 -84 9 3 41 15 71 26 30
11 56 22 58 23 2 2 -31 58 -73 126 l-76 122 53 54 c55 55 144 108 204 119 27
5 33 10 29 23 -5 17 1 16 102 0 60 -10 178 -33 263 -53 98 -22 157 -31 161
-25 4 7 18 5 40 -5 l34 -16 -39 6 c-30 4 -37 2 -34 -8 3 -7 11 -39 19 -72 l13
-58 34 6 c52 8 107 49 128 95 28 61 54 56 135 -27 72 -74 150 -197 176 -279
14 -44 15 -60 4 -105 -14 -65 -41 -111 -78 -135 -23 -15 -45 -18 -133 -16 -58
2 -120 -2 -138 -8 -36 -12 -82 -65 -82 -95 0 -11 27 -97 60 -192 33 -95 60
-175 60 -176 0 -2 -23 -3 -51 -2 -40 1 -54 -3 -63 -17 -9 -16 -5 -24 27 -52
l37 -32 -28 -6 c-42 -9 -53 -45 -63 -208 -4 -80 -11 -158 -14 -172 -8 -32 -3
-33 73 -13 l53 15 21 -47 c29 -68 35 -157 13 -223 -25 -77 -69 -139 -194 -273
-127 -135 -171 -210 -171 -288 0 -59 2 -63 102 -204 43 -62 78 -114 78 -117 0
-3 -40 -9 -90 -13 -49 -3 -90 -10 -90 -15 0 -4 20 -32 45 -61 102 -121 123
-193 91 -318 -16 -63 -19 -67 -184 -235 -294 -299 -333 -360 -689 -1092 -118
-243 -271 -470 -424 -628 -49 -51 -89 -95 -89 -98 0 -4 8 -7 17 -7 9 0 -12
-17 -46 -38 -97 -58 -175 -142 -222 -236 -39 -81 -63 -168 -95 -346 -9 -52
-30 -129 -46 -170 -16 -41 -41 -111 -55 -155 -63 -201 -156 -325 -296 -395
-95 -48 -118 -48 -131 -3 l-9 33 -39 -45 c-22 -25 -44 -45 -48 -45 -5 0 -18
20 -29 44 -21 49 -56 65 -103 47 l-25 -10 19 -56 c18 -53 18 -60 3 -118 -8
-34 -36 -96 -62 -137 -25 -41 -76 -123 -112 -182 -36 -59 -67 -105 -69 -103
-3 2 10 34 27 71 17 36 31 72 31 79 0 14 -100 55 -135 55 -12 0 -33 -8 -45
-18 -19 -16 -23 -29 -25 -104 -4 -110 -18 -141 -132 -293 -92 -122 -160 -192
-313 -325 -47 -41 -108 -95 -135 -122 l-51 -48 -54 29 c-34 18 -124 47 -238
75 -101 25 -222 61 -269 81 -48 19 -88 34 -89 32 -3 -3 13 -207 21 -258 l5
-36 -50 -5 c-51 -5 -89 -30 -112 -73 -13 -23 -39 -118 -34 -123 2 -2 47 26 99
62 52 36 100 66 105 66 6 0 14 5 18 12 4 6 3 8 -3 5 -6 -4 -14 0 -17 9 -11 28
-7 35 17 32 12 -2 21 -9 19 -16 -3 -16 45 14 57 35 7 13 11 13 37 0 46 -24 61
-48 68 -110 3 -32 13 -72 21 -87 8 -16 15 -31 15 -34 0 -9 -149 -107 -185
-122 -43 -18 -86 -18 -110 -1 -15 12 -27 11 -77 -5 -33 -10 -68 -18 -78 -18
-10 0 -29 -15 -41 -32 -37 -53 -69 -73 -69 -43 0 8 -13 21 -29 29 -25 14 -32
13 -70 -6 -94 -46 -177 -178 -267 -428 -49 -133 -53 -141 -54 -100 -1 90 -42
144 -140 187 -25 11 -60 32 -78 47 l-32 28 152 87 c84 48 167 97 184 107 l32
19 -45 39 c-41 36 -48 38 -92 34 -68 -7 -116 -45 -201 -160 -103 -140 -176
-200 -270 -223 -24 -6 -25 -4 -22 32 3 27 -2 46 -15 62 -19 23 -20 23 -51 7
-62 -32 -132 -174 -132 -267 l0 -42 -22 21 c-93 86 -377 134 -456 75 -16 -12
-36 -44 -50 -79 -41 -108 -54 -128 -102 -151 -25 -11 -57 -24 -72 -27 l-27 -6
25 60 c13 33 24 62 24 65 0 3 -22 5 -49 5 -57 0 -100 -29 -130 -89 -25 -49
-51 -70 -92 -76 -19 -3 -28 -3 -21 1 30 14 1 94 -36 94 -23 0 -136 -85 -168
-127 -16 -21 -52 -96 -80 -166 -50 -126 -51 -128 -57 -90 -4 21 -7 57 -7 81 0
23 -4 42 -8 42 -4 0 -28 -21 -52 -46 -51 -52 -145 -121 -207 -153 -62 -31
-244 -81 -294 -81 -25 0 -54 7 -66 15 -21 15 -22 14 -28 -19 -17 -89 -82 -134
-211 -143 -72 -6 -392 16 -366 25 16 5 37 48 46 91 l6 33 -28 -18 c-58 -38
-110 -63 -177 -86 -61 -20 -90 -23 -220 -23 -222 0 -353 13 -518 52 -82 19
-171 37 -199 40 -27 3 -51 11 -54 17 -2 6 -10 65 -19 130 -8 66 -17 121 -19
124 -3 2 -18 1 -33 -3 -43 -10 -121 -99 -197 -223 -37 -62 -86 -135 -107 -162
-40 -50 -101 -90 -139 -90 -19 0 -17 6 20 58 l41 57 -168 6 c-197 7 -227 10
-438 50 -207 38 -285 59 -292 75 -2 7 5 45 16 85 11 40 19 74 17 76 -2 2 -39
-3 -82 -11 -44 -8 -112 -18 -151 -21 -40 -3 -92 -12 -114 -18 l-42 -12 -31 60
c-24 45 -45 69 -86 97 -80 55 -169 74 -434 93 -263 18 -344 32 -501 84 -141
48 -162 61 -251 153 -66 68 -86 102 -115 196 -3 8 -46 -48 -97 -122 l-93 -136
-91 46 c-114 59 -182 113 -208 164 -36 71 -40 199 -5 170 11 -9 18 -4 35 30
12 23 18 49 15 59 -7 23 -47 41 -90 41 -52 0 -132 20 -146 36 -41 49 -219 -46
-219 -117 0 -17 -13 -10 -67 41 -88 83 -210 173 -429 316 -298 195 -410 287
-495 407 -26 38 -55 91 -64 118 -13 37 -24 53 -44 60 -41 16 -173 46 -346 78
-217 40 -343 84 -447 157 -46 31 -130 85 -188 120 -109 65 -236 163 -305 233
-33 35 -38 44 -28 60 10 15 4 33 -32 102 -101 195 -125 349 -72 459 14 30 34
65 42 77 16 21 15 23 -37 52 -29 17 -87 43 -128 57 -41 15 -125 50 -185 79
-113 53 -128 64 -374 283 -36 31 -82 83 -103 116 -38 59 -77 160 -66 172 4 3
32 0 63 -6 31 -6 59 -10 61 -7 3 3 -1 20 -9 39 -19 44 -92 108 -172 150 -36
18 -65 38 -65 45 0 6 19 17 43 25 33 10 43 18 45 39 5 40 -31 75 -108 104 -39
15 -70 30 -70 35 0 4 19 10 41 14 l42 7 -6 59 c-13 150 -121 295 -425 574 -75
69 -164 157 -197 196 -57 67 -135 177 -135 191 0 3 14 4 30 1 25 -3 37 3 70
36 22 22 40 44 40 49 0 5 -30 15 -67 22 -179 33 -316 153 -548 481 -48 69
-101 156 -116 194 l-29 68 54 -46 c30 -25 57 -46 60 -46 4 0 0 12 -8 28 -7 15
-26 66 -41 115 -38 122 -33 159 38 284 65 114 74 146 57 207 -14 52 -68 122
-82 108 -6 -6 -34 -57 -64 -114 l-53 -103 -1 45 c-1 104 -62 168 -147 156 -24
-3 -43 -3 -43 1 0 21 53 77 103 109 69 44 87 74 87 149 0 70 17 73 74 10 45
-48 73 -56 99 -27 11 12 137 341 137 358 0 1 -14 -11 -30 -28 -39 -38 -71 -35
-155 16 -65 39 -108 45 -144 20 l-23 -16 17 32 c17 33 66 60 107 60 13 0 67
-11 122 -25 141 -35 157 -22 115 91 l-21 56 -42 -8 c-109 -21 -158 -3 -182 68
-5 17 -20 38 -31 45 -19 13 -27 9 -88 -32 -37 -26 -68 -45 -70 -43 -2 2 -13
41 -25 88 -27 103 -31 303 -10 565 16 214 9 475 -15 565 -10 36 -30 93 -45
127 l-28 61 38 31 c23 19 52 57 71 96 30 61 33 75 39 208 11 217 64 423 127
497 45 52 106 75 182 67 l60 -7 7 56 c9 77 -3 184 -32 275 -25 81 -99 203
-152 253 l-31 29 -7 -28 c-5 -19 0 -44 14 -78 12 -28 20 -52 18 -55 -8 -8 -55
84 -65 128 -12 51 -13 295 -2 323 8 23 13 15 77 -153 73 -187 154 -335 211
-381 15 -13 16 -9 10 46 -9 86 -49 230 -117 427 -39 112 -56 174 -49 179 6 3
56 9 112 13 56 3 105 10 110 15 4 4 3 20 -3 35 -14 37 -12 87 3 108 7 9 35 29
62 45 61 36 69 70 33 134 -22 39 -24 40 -64 34 l-41 -6 13 53 c26 98 19 169
-32 313 -36 103 -47 148 -50 215 -6 104 1 118 46 95 57 -30 61 -21 58 124 -3
123 -2 130 20 153 20 22 91 53 100 44 1 -2 -6 -40 -17 -84 -31 -120 -33 -116
48 -110 70 5 79 9 279 119 42 23 43 25 37 64 -10 71 -34 91 -180 157 -28 13
-51 31 -53 41 -3 14 5 17 51 17 l54 0 47 -60 c25 -34 51 -58 56 -55 6 3 10 25
10 49 0 23 7 89 16 147 34 216 19 452 -36 576 -19 43 -14 51 20 33 15 -8 21
-3 36 33 17 36 19 70 19 252 0 116 2 220 3 232 2 23 57 93 73 93 5 0 9 -11 9
-25 0 -14 2 -25 5 -25 17 0 66 33 88 59 31 38 41 68 63 201 18 114 56 210 98
249 31 29 90 31 148 7 21 -9 47 -16 58 -16 24 0 25 -9 5 -57 -30 -71 -11 -103
60 -103 76 0 145 80 131 152 -3 18 -26 73 -51 122 -54 105 -58 149 -19 195
l26 31 18 -22 c12 -15 22 -20 28 -13 19 19 122 221 190 375 86 194 88 197 65
202 -14 3 -13 6 9 20 25 17 26 16 20 -4 -4 -18 -2 -20 29 -13 49 10 129 49
167 82 18 15 58 62 90 104 85 114 287 334 346 379 78 59 158 92 237 98 l68 5
-29 27 c-28 26 -30 34 -30 95 0 61 2 66 16 54 14 -11 19 -10 35 10 11 13 19
36 19 51 0 36 -39 141 -57 157 -11 9 -12 16 -3 32 15 28 22 26 14 -4 -5 -20
-2 -25 13 -25 49 0 82 48 127 188 17 51 35 86 47 93 15 8 17 14 9 29 -14 26 5
62 64 120 51 49 53 49 30 -5 -23 -57 -11 -96 50 -165 29 -33 59 -73 66 -90 15
-36 20 -37 47 -7 52 58 120 233 153 393 26 133 65 196 143 236 26 13 40 12
120 -3 125 -24 131 -24 123 4 -28 93 -11 148 77 244 32 33 57 68 57 78 0 9 6
15 13 13 6 -3 42 -15 79 -27 49 -16 76 -32 101 -61 l35 -38 28 29 c16 16 61
47 100 69 84 46 114 79 114 127 l0 34 -57 -6 -58 -6 50 29 c28 17 95 70 149
119 54 48 131 111 170 140 39 28 105 82 146 118 92 83 176 125 252 127 30 1
59 -1 64 -5 6 -3 39 -83 74 -177 l63 -170 49 0 c65 0 77 7 184 110 98 94 127
108 190 91 l37 -10 -29 30 -29 30 19 47 c9 26 20 58 23 70 6 23 5 24 -23 9
-16 -9 -56 -39 -89 -67 -67 -58 -134 -104 -142 -97 -2 3 28 64 67 137 39 73
70 134 68 135 -2 2 -70 -46 -152 -106 -82 -60 -150 -108 -152 -106 -2 2 12 32
31 68 19 35 35 72 35 81 0 10 -21 38 -47 63 l-48 46 35 29 c51 42 107 55 177
41 101 -20 155 -15 201 19 23 17 42 35 42 41 0 6 12 9 28 7 23 -3 33 -15 67
-82 22 -44 52 -89 67 -100 l28 -20 27 26 c16 15 41 32 56 37 46 18 179 13 282
-10 74 -16 102 -19 125 -10 27 9 30 8 30 -10 0 -10 4 -19 9 -19 5 0 44 20 87
43 82 45 124 91 124 133 0 22 -4 24 -50 24 l-51 0 33 36 c75 83 87 93 128 104
24 6 57 10 73 7 27 -4 31 0 55 51 46 100 33 210 -27 225 -9 2 -2 3 14 1 43 -6
77 -33 102 -83 12 -24 24 -48 26 -54 5 -17 64 12 93 46 33 39 42 62 55 150 14
93 30 124 70 132 44 10 125 -3 110 -18 -6 -6 -11 -20 -11 -30 0 -17 6 -19 58
-15 l59 4 -10 -26 c-8 -22 -5 -38 22 -94 18 -36 30 -73 27 -81 -6 -18 -47 -35
-81 -35 -37 0 -39 -17 -6 -50 39 -39 67 -38 181 5 50 20 111 37 136 39 52 4
85 30 115 88 23 45 24 75 4 148 -19 70 -19 100 1 128 l15 22 22 -24 c19 -21
144 -62 155 -51 2 1 -11 31 -28 65 -17 34 -29 64 -26 67 4 4 84 18 121 21 6 1
-4 -7 -22 -16z m1064 -228 c-3 -3 -12 -4 -19 -1 -8 3 -5 6 6 6 11 1 17 -2 13
-5z m-2601 -652 c-18 -16 -18 -16 -6 6 6 13 14 21 18 18 3 -4 -2 -14 -12 -24z
m6714 -179 c0 -5 -14 -30 -30 -58 l-30 -50 0 46 c0 25 5 50 12 57 13 13 48 16
48 5z m-2887 -175 c-12 -49 -51 -70 -97 -52 -12 5 -3 15 36 39 65 40 68 41 61
13z m-171 -30 c44 -13 34 -28 -20 -28 -30 0 -92 24 -92 35 0 9 73 5 112 -7z
m1808 -402 c-17 -31 -35 -58 -39 -61 -9 -5 -84 96 -77 103 5 4 139 19 145 16
2 -2 -11 -28 -29 -58z m-8024 -52 c18 -14 18 -14 -6 -3 -31 14 -36 19 -24 19
6 0 19 -7 30 -16z m3004 -158 c0 -2 -8 -10 -17 -17 -16 -13 -17 -12 -4 4 13
16 21 21 21 13z m7666 -311 l26 -60 -27 25 c-36 34 -47 57 -40 81 8 26 9 25
41 -46z m-12574 -1395 c14 -11 33 -35 42 -54 16 -34 22 -86 10 -86 -7 0 -175
70 -182 76 -5 3 18 46 36 67 20 23 63 22 94 -3z m1748 -293 c0 -2 -10 -12 -22
-23 l-23 -19 19 23 c18 21 26 27 26 19z m-50 -41 c0 -2 -8 -10 -17 -17 -16
-13 -17 -12 -4 4 13 16 21 21 21 13z m-580 -501 c17 -9 30 -17 30 -20 0 -7
-60 16 -66 26 -8 13 3 11 36 -6z m14314 -548 c17 -12 15 -16 -25 -50 -49 -42
-47 -42 -85 -22 -16 8 -45 15 -64 15 l-35 1 37 20 c30 15 120 45 149 48 3 1
13 -5 23 -12z m146 -212 c17 -9 30 -18 30 -21 0 -15 -43 -86 -56 -91 -24 -9
-54 26 -54 63 0 66 22 79 80 49z m269 -934 c33 -18 57 -13 106 24 25 20 50 33
55 30 6 -4 10 -36 10 -72 0 -63 -1 -65 -18 -50 -35 32 -69 22 -109 -34 l-36
-51 -33 109 c-40 128 -39 127 -14 86 10 -17 28 -37 39 -42z m-417 -1415 c-1
-19 -13 -63 -27 -97 -27 -67 -33 -124 -12 -132 6 -3 0 -6 -14 -6 -51 -2 -53
75 -7 206 28 80 35 90 47 78 8 -8 14 -30 13 -49z m-17188 -204 c-3 -9 -32 -51
-65 -92 -32 -41 -59 -81 -59 -89 0 -32 -20 7 -25 49 -5 35 -1 52 14 77 34 53
146 100 135 55z m17277 -360 l-31 -3 16 -32 17 -32 -27 24 c-19 18 -23 28 -15
37 6 7 8 17 5 22 -3 5 11 4 30 -2 l36 -11 -31 -3z m19 -713 c0 -5 -4 -9 -10
-9 -5 0 -10 7 -10 16 0 8 5 12 10 9 6 -3 10 -10 10 -16z m28 -34 c-3 -3 -9 2
-12 12 -6 14 -5 15 5 6 7 -7 10 -15 7 -18z m52 -89 c0 -5 -9 -1 -20 9 -11 10
-20 25 -20 34 0 12 6 9 20 -9 11 -14 20 -29 20 -34z m275 -91 c60 -20 175 -79
175 -89 0 -2 -24 -1 -54 2 -33 3 -56 0 -60 -7 -4 -6 8 -30 28 -52 46 -55 66
-98 66 -148 0 -55 -23 -108 -67 -153 -32 -33 -38 -35 -64 -26 -35 12 -49 35
-49 78 0 17 -4 39 -10 49 -8 16 -5 20 21 25 17 3 46 21 66 41 27 27 34 41 31
66 -3 29 -8 33 -78 58 -41 15 -96 41 -122 59 -26 18 -75 46 -109 62 -58 27
-61 30 -38 38 77 30 171 29 264 -3z m-2325 -5886 l32 -40 -46 28 c-25 15 -46
34 -46 40 0 26 29 12 60 -28z m-10803 -1546 c-17 -56 -27 -64 -27 -20 0 19 7
43 16 52 23 22 25 16 11 -32z m2306 -1060 c-7 -2 -19 -2 -25 0 -7 3 -2 5 12 5
14 0 19 -2 13 -5z m467 -48 c0 -2 -9 -9 -20 -15 -16 -9 -20 -8 -20 5 0 8 9 15
20 15 11 0 20 -2 20 -5z m-1625 -1207 c11 -5 40 -21 65 -34 l45 -24 -45 4
c-25 2 -83 19 -129 39 l-84 35 64 -5 c35 -3 73 -10 84 -15z"/>
<path d="M1471 7267 c2 -1 13 -9 24 -17 19 -14 19 -14 6 3 -7 9 -18 17 -24 17
-6 0 -8 -1 -6 -3z"/>
<path d="M14147 3057 l-68 -42 78 -7 c43 -4 79 -12 81 -18 6 -16 20 -11 27 9
6 20 -29 102 -43 100 -4 0 -37 -19 -75 -42z"/>
<path d="M15386 2471 l-39 -40 26 -12 c39 -18 79 11 75 53 -2 17 -8 33 -13 35
-6 2 -28 -15 -49 -36z"/>
</g>
</svg>
