<?xml version="1.0" standalone="no"?>
<!DOCTYPE svg PUBLIC "-//W3C//DTD SVG 20010904//EN"
 "http://www.w3.org/TR/2001/REC-SVG-20010904/DTD/svg10.dtd">
<svg version="1.0" xmlns="http://www.w3.org/2000/svg"
 width="1200.000000pt" height="1200.000000pt" viewBox="0 0 1200.000000 1200.000000"
 preserveAspectRatio="xMidYMid meet">
<metadata>
Created by potrace 1.11, written by Peter Selinger 2001-2013
</metadata>
<g transform="translate(0.000000,1200.000000) scale(0.100000,-0.100000)"
fill="#000000" stroke="none">
<path d="M3085 10794 c-16 -2 -66 -9 -110 -15 -699 -93 -1305 -640 -1479
-1337 -42 -165 -51 -247 -50 -452 0 -207 10 -287 59 -470 131 -485 490 -917
948 -1138 56 -27 119 -55 139 -61 21 -7 40 -16 43 -20 2 -4 -12 -52 -31 -106
-89 -249 -150 -520 -186 -820 -17 -144 -17 -606 0 -750 104 -891 498 -1676
1135 -2264 578 -533 1273 -850 2072 -943 141 -17 605 -16 750 0 512 59 1020
224 1429 466 l76 45 30 -58 c84 -157 220 -289 385 -371 150 -75 228 -93 410
-93 135 0 159 2 240 27 305 93 528 316 621 621 25 81 27 105 27 240 0 182 -18
260 -93 410 -82 165 -214 301 -371 385 l-58 30 45 76 c243 410 407 915 466
1429 16 144 17 608 0 750 -63 540 -228 1032 -497 1479 -540 898 -1455 1523
-2480 1695 -222 37 -335 46 -605 46 -347 -1 -564 -26 -868 -101 -79 -20 -145
-34 -147 -32 -1 1 -17 45 -34 97 -133 398 -386 725 -736 953 -203 132 -421
217 -680 265 -77 14 -388 26 -450 17z m333 -1251 c176 -55 307 -185 367 -367
64 -193 17 -408 -125 -570 -35 -39 -154 -122 -184 -128 -12 -2 -21 5 -27 19
-7 19 -1 26 49 54 131 74 230 219 254 372 53 341 -248 642 -589 589 -282 -44
-478 -309 -435 -589 24 -153 123 -298 254 -372 53 -30 56 -34 46 -56 -13 -29
-21 -26 -110 32 -265 174 -331 544 -144 807 116 161 309 251 511 238 28 -1 87
-15 133 -29z m-27 -234 c60 -30 121 -91 154 -151 24 -44 30 -68 33 -138 5
-104 -18 -175 -79 -243 -37 -43 -105 -94 -114 -86 -11 11 -16 59 -6 59 22 0
93 75 119 124 37 73 37 180 0 251 -31 60 -77 105 -138 136 -35 18 -61 23 -120
23 -59 0 -85 -5 -120 -23 -61 -31 -107 -76 -138 -136 -37 -71 -37 -178 0 -251
26 -49 97 -124 119 -124 10 0 5 -48 -6 -59 -9 -8 -77 43 -114 86 -61 68 -84
139 -79 243 3 70 9 94 33 138 33 60 94 121 154 151 82 43 220 43 302 0z m-72
-230 c26 -25 31 -38 31 -77 0 -50 -18 -81 -57 -101 -22 -11 -23 -15 -25 -244
l-3 -232 -25 0 -25 0 -3 232 c-2 229 -3 233 -25 244 -39 20 -57 51 -57 101 0
39 5 52 31 77 26 26 38 31 79 31 41 0 53 -5 79 -31z m2853 -2267 c39 -19 77
-46 92 -67 55 -72 105 -223 106 -317 0 -41 10 -37 -160 -58 -47 -6 -100 -13
-117 -16 l-33 -5 0 45 c0 114 -40 196 -94 196 -65 0 -106 -51 -106 -132 0
-106 36 -159 221 -323 148 -131 211 -201 260 -290 44 -81 60 -148 60 -257 0
-167 -64 -280 -204 -362 -139 -82 -392 -66 -523 33 -88 66 -147 196 -160 351
l-7 79 34 6 c143 26 271 40 274 31 2 -6 6 -44 9 -84 9 -128 56 -192 141 -192
65 0 92 48 82 151 -10 110 -48 163 -249 339 -219 193 -275 283 -285 455 -14
228 89 382 295 441 30 8 92 12 172 11 119 -2 129 -4 192 -35z m1040 0 c39 -19
77 -46 92 -67 55 -72 105 -223 106 -317 0 -41 10 -37 -160 -58 -47 -6 -100
-13 -117 -16 l-33 -5 0 45 c0 114 -40 196 -94 196 -65 0 -106 -51 -106 -132 0
-106 36 -159 221 -323 148 -131 211 -201 260 -290 44 -81 60 -148 60 -257 0
-167 -64 -280 -204 -362 -139 -82 -392 -66 -523 33 -88 66 -147 196 -160 351
l-7 79 34 6 c143 26 271 40 274 31 2 -6 6 -44 9 -84 9 -128 56 -192 141 -192
65 0 92 48 82 151 -10 110 -48 163 -249 339 -219 193 -275 283 -285 455 -14
228 89 382 295 441 30 8 92 12 172 11 119 -2 129 -4 192 -35z m-1812 -117 l0
-135 -125 0 -125 0 0 -680 0 -680 -180 0 -180 0 0 680 0 679 -122 3 -123 3 -3
133 -3 132 431 0 430 0 0 -135z"/>
<path d="M3200 9040 c-11 -11 -20 -29 -20 -40 0 -26 34 -60 60 -60 26 0 60 34
60 60 0 26 -34 60 -60 60 -11 0 -29 -9 -40 -20z"/>
</g>
</svg>
